<svg width="240" height="240" viewBox="0 0 240 240" fill="none" xmlns="http://www.w3.org/2000/svg">
<path d="M194.969 98.133C194.99 97.5014 195 96.8672 195 96.2305C195 65.1644 170.152 39.9805 139.5 39.9805C115.185 39.9805 94.5218 55.8282 87.0176 77.8883C81.6283 75.0379 75.4999 73.4264 69 73.4264C47.4609 73.4264 30 91.1232 30 112.953C30 134.784 47.4609 152.48 69 152.48L139.5 152.48C139.525 152.48 139.55 152.48 139.575 152.48H181.5C197.24 152.48 210 139.548 210 123.595C210 112.58 203.917 103.005 194.969 98.133Z" fill="white"/>
<path fill-rule="evenodd" clip-rule="evenodd" d="M96.7021 163.499C94.0758 162.646 91.2551 164.083 90.4017 166.709L73.3651 219.142C72.5118 221.769 73.9491 224.589 76.5753 225.443C79.2016 226.296 82.0224 224.859 82.8757 222.233L99.9123 169.799C100.766 167.173 99.3284 164.352 96.7021 163.499ZM156.882 163.499C154.256 162.646 151.435 164.083 150.581 166.709L133.545 219.142C132.691 221.769 134.129 224.589 136.755 225.443C139.381 226.296 142.202 224.859 143.055 222.233L160.092 169.799C160.945 167.173 159.508 164.352 156.882 163.499ZM110.534 166.709C111.387 164.083 114.208 162.646 116.834 163.499C119.461 164.352 120.898 167.173 120.045 169.799L107.125 209.562C106.272 212.189 103.451 213.626 100.824 212.772C98.1982 211.919 96.761 209.098 97.6143 206.472L110.534 166.709ZM176.765 163.499C174.139 162.646 171.318 164.083 170.465 166.709L157.545 206.472C156.692 209.098 158.129 211.919 160.755 212.772C163.381 213.626 166.202 212.189 167.056 209.562L179.975 169.799C180.829 167.173 179.391 164.352 176.765 163.499ZM70.2697 166.709C71.123 164.083 73.9438 162.646 76.5701 163.499C79.1963 164.352 80.6336 167.173 79.7803 169.799L70.9773 196.892C70.124 199.518 67.3032 200.955 64.677 200.102C62.0507 199.249 60.6134 196.428 61.4668 193.802L70.2697 166.709ZM136.965 163.499C134.339 162.646 131.518 164.083 130.665 166.709L121.862 193.802C121.009 196.428 122.446 199.249 125.072 200.102C127.699 200.955 130.519 199.518 131.373 196.892L140.176 169.799C141.029 167.173 139.592 164.352 136.965 163.499Z" fill="#B4F5F2"/>
</svg>
