<svg width="240" height="240" viewBox="0 0 240 240" fill="none" xmlns="http://www.w3.org/2000/svg">
<path d="M194.969 98.133C194.99 97.5014 195 96.8672 195 96.2305C195 65.1644 170.152 39.9805 139.5 39.9805C115.185 39.9805 94.5218 55.8282 87.0176 77.8883C81.6283 75.0379 75.4999 73.4264 69 73.4264C47.4609 73.4264 30 91.1232 30 112.953C30 134.784 47.4609 152.48 69 152.48L139.5 152.48C139.525 152.48 139.55 152.48 139.575 152.48H181.5C197.24 152.48 210 139.548 210 123.595C210 112.58 203.917 103.005 194.969 98.133Z" fill="white"/>
<path fill-rule="evenodd" clip-rule="evenodd" d="M115.402 166.709C116.255 164.083 119.076 162.646 121.702 163.499C124.328 164.352 125.766 167.173 124.912 169.799L107.876 222.233C107.022 224.859 104.202 226.296 101.575 225.443C98.9491 224.589 97.5118 221.769 98.3651 219.142L115.402 166.709ZM135.534 166.709C136.387 164.083 139.208 162.646 141.834 163.499C144.461 164.352 145.898 167.173 145.045 169.799L132.125 209.562C131.272 212.189 128.451 213.626 125.824 212.772C123.198 211.919 121.761 209.098 122.614 206.472L135.534 166.709ZM101.57 163.499C98.9438 162.646 96.123 164.083 95.2697 166.709L86.4668 193.802C85.6134 196.428 87.0507 199.249 89.677 200.102C92.3032 200.955 95.124 199.518 95.9773 196.892L104.78 169.799C105.634 167.173 104.196 164.352 101.57 163.499Z" fill="#B4F5F2"/>
</svg>
